PathFileType	4	(X/Y/Z)	pose_F01_0-96.trc
DataRate	CameraRate	NumFrames	NumMarkers	Units	OrigDataRate	OrigDataStartFrame	OrigNumFrames
30	30	9	21	m	30	84	96
Frame#	Time	CHip			RHip			RKnee			RAnkle			RBigToe			RSmallToe			RHeel			LHip			LKnee			LAnkle			LBigToe			LSmallToe			LHeel			Neck			Nose			RShoulder			RElbow			RWrist			LShoulder			LElbow			LWrist			
		X1	Y1	Z1	X2	Y2	Z2	X3	Y3	Z3	X4	Y4	Z4	X5	Y5	Z5	X6	Y6	Z6	X7	Y7	Z7	X8	Y8	Z8	X9	Y9	Z9	X10	Y10	Z10	X11	Y11	Z11	X12	Y12	Z12	X13	Y13	Z13	X14	Y14	Z14	X15	Y15	Z15	X16	Y16	Z16	X17	Y17	Z17	X18	Y18	Z18	X19	Y19	Z19	X20	Y20	Z20	X21	Y21	Z21	
84	2.8	-0.19685522292636826	1.8363827928929388	-0.5319881295827041	-0.20763919652373114	1.8333209630584653	-0.46723289060921036	-0.2004196065885908	1.6952962971331096	-0.4537557644298033	-0.16517903819369048	1.7129187433288102	-0.399512669541275	-0.19976331644240278	1.6214733391516374	-0.3605781476618763	-0.19842940919339627	1.6308152898252077	-0.3352742818038906	-0.15928303717462788	1.6643269330688435	-0.35279788197621503	-0.1852736867049207	1.8354695898400828	-0.5879385267551288	-0.18310964825521828	1.7004144433894324	-0.5445473696974518	-0.18079109431583354	1.5655311054731498	-0.5191436612412464	-0.2181837718370715	1.5319010798246808	-0.5335993959140252	-0.20671897359435373	1.5342236138449206	-0.5495653471247106	-0.17269691694247863	1.559570652761637	-0.5096406271963213	-0.17253764514574654	1.9881742675676162	-0.5567512590797471	-0.19924049785401418	2.0488113627149653	-0.5692178971451831	-0.18917619167260985	1.9861961584037073	-0.475102657530737	-0.19723755561512837	1.9168287113109022	-0.4392802170491516	-0.2199660651742387	1.960464653047485	-0.42994485470652777	-0.15131754657757449	1.9895938302366822	-0.6291069632547437	-0.13589905974595257	1.920681814359066	-0.6831926979138271	-0.14569036510332628	1.9724925527775499	-0.6879659360911717
85	2.8333333333333335	-0.19576359728523018	1.8347257833063209	-0.5339658110800827	-0.20741251076875064	1.8338078618029146	-0.4725443046498847	-0.19846751123231593	1.6989307243761744	-0.4563627770750987	-0.16517903819369048	1.7129187433288102	-0.399512669541275	-0.19976331644240278	1.6214733391516374	-0.3605781476618763	-0.19842940919339627	1.6308152898252077	-0.3352742818038906	-0.15928303717462788	1.6643269330688435	-0.35279788197621503	-0.18060208990991788	1.834571443455919	-0.5974334948222108	-0.17926356146312697	1.7002756252981897	-0.5486848870587098	-0.18068676437905662	1.5655251606955838	-0.5192626490673392	-0.21809733051358038	1.53153623648728	-0.533610307890225	-0.20689272565491598	1.535483791295881	-0.549292986145939	-0.17063413106929842	1.559521181232579	-0.5118319556767915	-0.1717954146954486	1.9879411156679654	-0.5536203285880211	-0.19924661538641486	2.048869447599994	-0.5691696864203071	-0.19026774567887886	1.9846507961521072	-0.4692964605186152	-0.2152896616676422	1.9175208131923003	-0.43056246748839616	-0.22375761471522954	1.97057738861694	-0.42843787043450166	-0.15055525467525147	1.9920891931002906	-0.6267018236383112	-0.1476703239615807	1.9167777004359954	-0.6803083736638209	-0.15600337013978013	1.9696805167830682	-0.6817768462054795
86	2.8666666666666667	-0.19203370815477086	1.833295653881446	-0.5328991688421163	-0.2036716179260093	1.8317547478793572	-0.47156125640909524	-0.19622366200433933	1.697172164274971	-0.45869293154366353	-0.16517903819369048	1.7129187433288102	-0.399512669541275	-0.19976331644240278	1.6214733391516374	-0.3605781476618763	-0.19842940919339627	1.6308152898252077	-0.3352742818038906	-0.15928303717462788	1.6643269330688435	-0.35279788197621503	-0.17699076278934744	1.8344920103724096	-0.5968006379258787	-0.17698028840952124	1.6988301225964701	-0.5509631065322649	-0.1796550459792347	1.5652023685378187	-0.5159904092468566	-0.2168182771667412	1.5335433126699312	-0.5305919662834159	-0.2037488052381114	1.5353870241742578	-0.5481653872424063	-0.1722582038660597	1.5597666883992136	-0.5105712835845299	-0.17169595000376134	1.9869220349080556	-0.5531951892347855	-0.19723178051357554	2.0489739988430347	-0.571304944186171	-0.1882549668470163	1.9836458995881852	-0.4709198707762862	-0.2252824908122078	1.9179368434837643	-0.42192240648374374	-0.2232291245377721	1.9795270355891983	-0.4289040095861516	-0.1513258447690875	1.99352442797727	-0.6298360571455706	-0.14977165693930836	1.9195217577402628	-0.6782594081781262	-0.15412395412922936	1.9748440354447092	-0.687173051745684
87	2.9	-0.1914934425632371	1.840655269909705	-0.5307482118936935	-0.20230288425753457	1.8386213584218336	-0.47460599578647233	-0.19442584994937004	1.6988855269224317	-0.46088877193347894	-0.16517903819369048	1.7129187433288102	-0.399512669541275	-0.19976331644240278	1.6214733391516374	-0.3605781476618763	-0.19842940919339627	1.6308152898252077	-0.3352742818038906	-0.15928303717462788	1.6643269330688435	-0.35279788197621503	-0.17759046145758545	1.8411824723076224	-0.597500463167914	-0.17534644395072796	1.6992772819089568	-0.5527240242938906	-0.18067602583597636	1.5655246722494671	-0.5192514192441918	-0.21796524407862405	1.5339914123203866	-0.5338033787698745	-0.20684742783690713	1.5353857766756644	-0.5492249601233508	-0.17214886652022945	1.5597475141367876	-0.5102676018088628	-0.17172246346642275	1.9881691134610466	-0.5535134793451265	-0.19718865575670477	2.0502783987865767	-0.5717922008767183	-0.18822894318947486	1.9848952414320948	-0.471301348695401	-0.22608991646454643	1.918801040686004	-0.4165313610129303	-0.22213378340334006	1.9837683567463893	-0.4346572915870338	-0.15139406089879018	1.9933157376000672	-0.6297595019432821	-0.14607165650302986	1.9245478743295592	-0.6981053409752533	-0.156196784609581	1.9770204542363483	-0.685317352094808
88	2.933333333333333	-0.1911875418972228	1.8345355135376242	-0.529797835030614	-0.20184461035953663	1.8307010446508658	-0.47344113864292614	-0.19627409032057236	1.6979180613313307	-0.45871401792218464	-0.16517903819369048	1.7129187433288102	-0.399512669541275	-0.19976331644240278	1.6214733391516374	-0.3605781476618763	-0.19842940919339627	1.6308152898252077	-0.3352742818038906	-0.15928303717462788	1.6643269330688435	-0.35279788197621503	-0.17915655873888683	1.8359975201924	-0.5946598897524825	-0.1742553587820998	1.7006932582626297	-0.550043076086409	-0.180588209867259	1.5649096358319001	-0.5192720153201901	-0.21775017907130953	1.5330784605179806	-0.5338574355683097	-0.2057899722030785	1.5350947598424818	-0.5460477068667121	-0.1722388204431576	1.559585945979147	-0.5105719476677354	-0.17279923489327242	1.9880877494439435	-0.5481313644626452	-0.1971634969186449	2.049155731812629	-0.5711937347718157	-0.19011792333734073	1.9836444686687644	-0.46852990369652064	-0.22404912564730192	1.9176653353646766	-0.4185398703438949	-0.22113342308400394	1.9834094082329277	-0.4315534087830653	-0.1496626187533764	1.995119771577082	-0.6239250433168662	-0.14364069515052588	1.9264274919186049	-0.6893954629133884	-0.1502067731210945	1.9718862484789983	-0.692100931102004
89	2.966666666666667	-0.19074834615010003	1.8329325566609518	-0.5297130798634894	-0.2015145080557134	1.8304080368003546	-0.4735295903780414	-0.19612811931543064	1.6968907510437117	-0.45866778878790054	-0.16517903819369048	1.7129187433288102	-0.399512669541275	-0.19976331644240278	1.6214733391516374	-0.3605781476618763	-0.19842940919339627	1.6308152898252077	-0.3352742818038906	-0.15928303717462788	1.6643269330688435	-0.35279788197621503	-0.17668708931985494	1.8342366226678524	-0.5967767773821404	-0.17422640389754407	1.7006373089350757	-0.550062466563653	-0.1805828044661326	1.564961611739263	-0.5193126067027496	-0.21766532084494278	1.5329332976108	-0.5339126523342849	-0.20372178493713752	1.5352267695464343	-0.5482415690022525	-0.1719000486394004	1.5582157253026812	-0.510564601748767	-0.1698532685841889	1.986867267473756	-0.546734703290808	-0.19631339049133673	2.0489479589385904	-0.568258048161606	-0.18717687509225694	1.983416786949393	-0.46761936843223806	-0.22120664805692425	1.9136929791446506	-0.4256882730236602	-0.22032177759058863	1.9777435014203604	-0.4359961390188981	-0.14975973713758833	1.9925838463725003	-0.6235401676107494	-0.14431316196930935	1.9278623035732763	-0.6925538666122653	-0.1491914774969514	1.9755283740531222	-0.6893642772643284
90	3.0	-0.18996228015942282	1.8313592358520858	-0.5262396511547621	-0.2016625989385174	1.8292822934098003	-0.4731558653475978	-0.19443521808969047	1.6963200016583335	-0.46038474581765165	-0.16517903819369048	1.7129187433288102	-0.399512669541275	-0.19976331644240278	1.6214733391516374	-0.3605781476618763	-0.19842940919339627	1.6308152898252077	-0.3352742818038906	-0.15928303717462788	1.6643269330688435	-0.35279788197621503	-0.17613896522333253	1.8320357896924582	-0.5931573151583561	-0.17649408414874637	1.6994622457282136	-0.5473242123898049	-0.17881503134157223	1.5634947991853079	-0.5208310958287669	-0.21772085674708289	1.5330193663992013	-0.5338792874724707	-0.20584525404305745	1.5353559920646291	-0.5460073425331275	-0.17021675395359706	1.557073606453073	-0.5124989875364696	-0.17098230658341632	1.9839261353136084	-0.5409092334728064	-0.19824709130669985	2.048991566299848	-0.5659054138205711	-0.18720521151728373	1.979466653643327	-0.4580076423103798	-0.21674513103838924	1.9105972472208916	-0.42674780533561313	-0.2198161983532088	1.9770462103821125	-0.43437745049862775	-0.15185025680200456	1.9899004517659138	-0.6209322423779935	-0.14193391612626333	1.9270305749498318	-0.6943488727061072	-0.15028282375949967	1.9786502446714664	-0.6840861519311586
91	3.033333333333333	-0.18856320057963558	1.8317149585892665	-0.5233695170892934	-0.2004252161742976	1.8286992032920877	-0.4701017266112882	-0.19600615661301077	1.6962135910119047	-0.4587094451006958	-0.16517903819369048	1.7129187433288102	-0.399512669541275	-0.19976331644240278	1.6214733391516374	-0.3605781476618763	-0.19842940919339627	1.6308152898252077	-0.3352742818038906	-0.15928303717462788	1.6643269330688435	-0.35279788197621503	-0.17456006474785718	1.8340091705848671	-0.5904122876796787	-0.1739819725990631	1.6991923615341564	-0.5500027025639809	-0.17754763595428086	1.5648898095844153	-0.5180504545784465	-0.21455620168621733	1.5329558870446847	-0.5327946165666625	-0.20360650912646747	1.5380873578258978	-0.5484786546821846	-0.17194836504844807	1.55864877862209	-0.5105074571995514	-1.8249384739785064	1.8920147405081416	1.3073975463262306	-0.19941778915387212	2.048795538507463	-0.5606961946785393	-0.18531239116433154	1.9794947798145075	-0.46023167790745034	-0.21110802049761646	1.9086033617093972	-0.43332753530401064	-0.2181313561617842	1.9681956506667395	-0.4351062331323564	-0.1518391524031155	1.988322395143995	-0.6203854041723073	-0.14226139162499535	1.9275182743639323	-0.6860079943369546	-0.1518243428690062	1.9821035480024367	-0.6813877635688926
92	3.066666666666667	-0.1899723719898222	1.8339243610369504	-0.526509152971708	-0.20153653446923703	1.830729501727317	-0.4733556738085052	-0.19573480702785534	1.6996294879013625	-0.45936487868573633	-0.16517903819369048	1.7129187433288102	-0.399512669541275	-0.19976331644240278	1.6214733391516374	-0.3605781476618763	-0.19842940919339627	1.6308152898252077	-0.3352742818038906	-0.15928303717462788	1.6643269330688435	-0.35279788197621503	-0.17700382723906813	1.8342836892919754	-0.5880867415207094	-0.17610716181579555	1.7022498026805795	-0.5480671861237301	-0.17640986364754188	1.566734120955877	-0.5153584842298254	-0.21519617782549286	1.5341429629870653	-0.5366532477983675	-0.20116127642854495	1.5363057193475829	-0.5510109586925671	-0.1719099538961556	1.5586526938020988	-0.5104927821493066	-0.17085322024748398	1.9852074177026175	-0.5409160001466667	-0.20034085293365472	2.0488539264073493	-0.5637056961061266	-0.1862452875542785	1.9809197324432366	-0.4639655739382377	-0.2075094491315575	1.9073586930185447	-0.43785893160397515	-0.21627096877964497	1.9678514319252072	-0.4374149984236277	-0.15396824312562046	1.989936422291953	-0.6185589435987323	-0.14217161946004045	1.9262385361017194	-0.6856987315452555	-0.15176161986624898	1.9811108855461288	-0.6810618822471832
